<svg viewBox="0 0 300 200" xmlns="http://www.w3.org/2000/svg">
  <!-- Simulating the front view from your composite image -->
  <rect width="300" height="200" fill="#D2691E"/>
  
  <!-- Main pin body - Tigger face -->
  <circle cx="150" cy="100" r="70" fill="#FF8C00" stroke="#FF6347" stroke-width="3"/>
  
  <!-- Inner face -->
  <circle cx="150" cy="100" r="60" fill="#FFD700"/>
  
  <!-- Eyes -->
  <circle cx="130" cy="85" r="8" fill="black"/>
  <circle cx="170" cy="85" r="8" fill="black"/>
  <circle cx="132" cy="83" r="3" fill="white"/>
  <circle cx="172" cy="83" r="3" fill="white"/>
  
  <!-- Nose -->
  <ellipse cx="150" cy="100" rx="6" ry="4" fill="#FF1493"/>
  
  <!-- Mouth -->
  <path d="M 135 115 Q 150 125 165 115" stroke="black" stroke-width="2" fill="none"/>
  
  <!-- Ears -->
  <circle cx="110" cy="60" r="15" fill="#FF8C00"/>
  <circle cx="190" cy="60" r="15" fill="#FF8C00"/>
  <circle cx="110" cy="60" r="10" fill="#FFD700"/>
  <circle cx="190" cy="60" r="10" fill="#FFD700"/>
  
  <!-- Stripes -->
  <path d="M 120 70 Q 140 75 120 85" stroke="black" stroke-width="2" fill="none"/>
  <path d="M 180 70 Q 160 75 180 85" stroke="black" stroke-width="2" fill="none"/>
  <path d="M 125 95 Q 145 100 125 105" stroke="black" stroke-width="2" fill="none"/>
  <path d="M 175 95 Q 155 100 175 105" stroke="black" stroke-width="2" fill="none"/>
</svg>